<svg xmlns="http://www.w3.org/2000/svg" width="100%" viewBox="0 0 811 470" role="img" aria-label="Research map" class="flowchart" style="max-width: 811px;"><style>text{font-family:"trebuchet ms",verdana,arial,sans-serif;font-size:13px;}.root rect{fill:#ffffff;stroke:#1f4e79;stroke-width:2px;}.root text{fill:#1a1a1a;}.cat rect{fill:#1a1a1a;stroke:#1a1a1a;stroke-width:1px;}.cat text{fill:#ffffff;}.topic rect{fill:#ffffff;stroke:#c4ccd4;stroke-width:1px;}.topic text{fill:#1a1a1a;}.paper rect{fill:#ffffff;stroke:#1f4e79;stroke-width:1px;}.paper text{fill:#1f4e79;}.edge{fill:none;stroke:#0b0b0b;stroke-width:2px;}</style><defs><marker id="arrow" viewBox="0 0 10 10" refX="8" refY="5" markerUnits="userSpaceOnUse" markerWidth="8" markerHeight="8" orient="auto"><path d="M 0 0 L 10 5 L 0 10 z" fill="#0b0b0b" stroke="#0b0b0b"/></marker></defs><g class="edges"><path class="edge" d="M122.0,257.8 C145.0,257.8 145.0,97.5 168.0,97.5" marker-end="url(#arrow)"/><path class="edge" d="M122.0,257.8 C145.0,257.8 145.0,232.5 168.0,232.5" marker-end="url(#arrow)"/><path class="edge" d="M122.0,257.8 C145.0,257.8 145.0,300.0 168.0,300.0" marker-end="url(#arrow)"/><path class="edge" d="M122.0,257.8 C145.0,257.8 145.0,401.2 168.0,401.2" marker-end="url(#arrow)"/><path class="edge" d="M303.0,97.5 C340.5,97.5 340.5,52.5 378.0,52.5" marker-end="url(#arrow)"/><path class="edge" d="M303.0,97.5 C340.5,97.5 340.5,142.5 378.0,142.5" marker-end="url(#arrow)"/><path class="edge" d="M303.0,232.5 C340.5,232.5 340.5,232.5 378.0,232.5" marker-end="url(#arrow)"/><path class="edge" d="M324.0,300.0 C351.0,300.0 351.0,300.0 378.0,300.0" marker-end="url(#arrow)"/><path class="edge" d="M268.0,401.2 C323.0,401.2 323.0,367.5 378.0,367.5" marker-end="url(#arrow)"/><path class="edge" d="M268.0,401.2 C323.0,401.2 323.0,435.0 378.0,435.0" marker-end="url(#arrow)"/><path class="edge" d="M590.0,52.5 C614.0,52.5 614.0,30.0 638.0,30.0" marker-end="url(#arrow)"/><path class="edge" d="M590.0,52.5 C614.0,52.5 614.0,75.0 638.0,75.0" marker-end="url(#arrow)"/><path class="edge" d="M548.0,142.5 C593.0,142.5 593.0,120.0 638.0,120.0" marker-end="url(#arrow)"/><path class="edge" d="M548.0,142.5 C593.0,142.5 593.0,165.0 638.0,165.0" marker-end="url(#arrow)"/><path class="edge" d="M548.0,232.5 C593.0,232.5 593.0,210.0 638.0,210.0" marker-end="url(#arrow)"/><path class="edge" d="M548.0,232.5 C593.0,232.5 593.0,255.0 638.0,255.0" marker-end="url(#arrow)"/><path class="edge" d="M534.0,300.0 C586.0,300.0 586.0,300.0 638.0,300.0" marker-end="url(#arrow)"/><path class="edge" d="M541.0,367.5 C589.5,367.5 589.5,345.0 638.0,345.0" marker-end="url(#arrow)"/><path class="edge" d="M541.0,367.5 C589.5,367.5 589.5,390.0 638.0,390.0" marker-end="url(#arrow)"/><path class="edge" d="M541.0,435.0 C589.5,435.0 589.5,435.0 638.0,435.0" marker-end="url(#arrow)"/></g><g class="nodes"><g class="root"><rect x="10" y="243.3" width="112" height="29" rx="14.5" ry="14.5"/><text x="66.0" y="262.3" text-anchor="middle">LLM Research</text></g><g class="cat"><rect x="170" y="83.0" width="133" height="29" rx="4" ry="4"/><text x="236.5" y="102.0" text-anchor="middle">Code Efficiency</text></g><g class="cat"><rect x="170" y="218.0" width="133" height="29" rx="4" ry="4"/><text x="236.5" y="237.0" text-anchor="middle">Code Generation</text></g><g class="cat"><rect x="170" y="285.5" width="154" height="29" rx="4" ry="4"/><text x="247.0" y="304.5" text-anchor="middle">Multi-Agent System</text></g><g class="cat"><rect x="170" y="386.8" width="98" height="29" rx="4" ry="4"/><text x="219.0" y="405.8" text-anchor="middle">Korean NLP</text></g><g class="topic"><rect x="380" y="38.0" width="210" height="29" rx="4" ry="4"/><text x="485.0" y="57.0" text-anchor="middle">Time Complexity Prediction</text></g><g class="topic"><rect x="380" y="128.0" width="168" height="29" rx="4" ry="4"/><text x="464.0" y="147.0" text-anchor="middle">Test Case Generation</text></g><g class="topic"><rect x="380" y="218.0" width="168" height="29" rx="4" ry="4"/><text x="464.0" y="237.0" text-anchor="middle">Contract Enforcement</text></g><g class="topic"><rect x="380" y="285.5" width="154" height="29" rx="4" ry="4"/><text x="457.0" y="304.5" text-anchor="middle">Multi-Agent Debate</text></g><g class="topic"><rect x="380" y="353.0" width="161" height="29" rx="4" ry="4"/><text x="460.5" y="372.0" text-anchor="middle">Dialect Hate Speech</text></g><g class="topic"><rect x="380" y="420.5" width="161" height="29" rx="4" ry="4"/><text x="460.5" y="439.5" text-anchor="middle">Dialect Translation</text></g><g class="paper"><rect x="640" y="15.5" width="133" height="29" rx="4" ry="4"/><text x="706.5" y="34.5" text-anchor="middle">TCProF NAACL’25</text></g><g class="paper"><rect x="640" y="60.5" width="126" height="29" rx="4" ry="4"/><text x="703.0" y="79.5" text-anchor="middle">MEC³O arXiv’25</text></g><g class="paper"><rect x="640" y="105.5" width="119" height="29" rx="4" ry="4"/><text x="699.5" y="124.5" text-anchor="middle">STAB arXiv’26</text></g><g class="paper"><rect x="640" y="150.5" width="161" height="29" rx="4" ry="4"/><text x="720.5" y="169.5" text-anchor="middle">ContractEval ACL’26</text></g><g class="paper"><rect x="640" y="195.5" width="126" height="29" rx="4" ry="4"/><text x="703.0" y="214.5" text-anchor="middle">SLICE arXiv’26</text></g><g class="paper"><rect x="640" y="240.5" width="161" height="29" rx="4" ry="4"/><text x="720.5" y="259.5" text-anchor="middle">ContractEval ACL’26</text></g><g class="paper"><rect x="640" y="285.5" width="126" height="29" rx="4" ry="4"/><text x="703.0" y="304.5" text-anchor="middle">MEC³O arXiv’25</text></g><g class="paper"><rect x="640" y="330.5" width="154" height="29" rx="4" ry="4"/><text x="717.0" y="349.5" text-anchor="middle">K-SpecDetox KCC’26</text></g><g class="paper"><rect x="640" y="375.5" width="126" height="29" rx="4" ry="4"/><text x="703.0" y="394.5" text-anchor="middle">K-ToPiC KCC’25</text></g><g class="paper"><rect x="640" y="420.5" width="126" height="29" rx="4" ry="4"/><text x="703.0" y="439.5" text-anchor="middle">CA-DiaL KSC’24</text></g></g></svg>
